<svg width="823" height="298" viewBox="0 0 823 298" fill="none" xmlns="http://www.w3.org/2000/svg">
<path d="M129 0L0 74.6V140.4L129 65.4L201.6 107L187.1 115.4L129 82L78.4 111.2L194 178.1L258 140.6V74.6L129 0Z" fill="white"/>
<path d="M129 297.699L258 223.399V157.399L129 232.399L56.4 190.799L70.9 182.399L129 215.799L179.5 186.599L64 119.699L0 157.199V223.399L129 297.699Z" fill="#40AA1D"/>
<path d="M397.698 99C409.298 82 426.598 73.5 449.598 73.5C470.498 73.5 487.398 80.8 500.398 95.3C513.398 109.6 519.798 127.3 519.798 148.4C519.798 169.5 513.298 187.2 500.398 201.5C487.398 216 469.998 223.3 448.198 223.3C426.298 223.3 409.498 214.7 397.698 197.5V278.5H375.898V75.8H397.698V99ZM446.698 93.2C430.998 93.2 418.598 98.6 409.598 109.5C400.898 119.8 396.498 132.7 396.498 148.4C396.498 164.1 400.898 177 409.598 187.3C418.698 198.1 431.098 203.6 446.698 203.6C462.198 203.6 474.698 198.2 484.398 187.3C493.498 177.1 497.998 164.1 497.998 148.4C497.998 132.7 493.498 119.8 484.398 109.5C474.798 98.6 462.198 93.2 446.698 93.2Z" fill="white"/>
<path d="M565.1 220.9V94.9004H532.5V75.8004H565.1V23.9004H586.9V75.8004H619.3V94.9004H586.9V220.8H565.1V220.9Z" fill="white"/>
<path d="M711.9 203.5C721.2 203.5 729.4 200.9 736.6 195.7C743.8 190.5 749 183.7 752.3 175.4H775.8C771.3 189.7 763.2 201.2 751.4 209.9C739 218.8 724.3 223.2 707.3 223.2C686 223.2 668.7 215.9 655.4 201.4C642.4 187.3 636 169.6 636 148.3C636 127 642.5 109.3 655.4 95.2004C668.7 80.7004 686.1 73.4004 707.3 73.4004C724.3 73.4004 739 77.9004 751.4 86.7004C763.2 95.4004 771.3 106.9 775.8 121.2H752.3C749 112.9 743.8 106.1 736.6 100.9C729.4 95.7004 721.2 93.1004 711.9 93.1004C702.6 93.1004 694.7 94.6004 688.3 97.5004C681.8 100.4 676.4 104.4 671.9 109.4C662.4 119.8 657.7 132.8 657.7 148.3C657.7 163.8 662.4 176.7 671.9 187.2C681.6 198 694.9 203.5 711.9 203.5Z" fill="white"/>
<path d="M806.899 75.8008C809.099 75.8008 811.099 76.2008 813.099 77.0008C814.999 77.8008 816.699 79.0008 818.099 80.4008C819.499 81.8008 820.699 83.5008 821.499 85.4008C822.299 87.3008 822.699 89.4008 822.699 91.6008C822.699 93.8008 822.299 95.8008 821.499 97.7008C820.699 99.6008 819.499 101.301 818.099 102.701C816.699 104.101 814.999 105.301 813.099 106.101C811.199 106.901 809.099 107.301 806.899 107.301C804.699 107.301 802.699 106.901 800.799 106.101C798.899 105.301 797.199 104.101 795.799 102.701C794.399 101.301 793.199 99.6008 792.399 97.7008C791.599 95.8008 791.199 93.7008 791.199 91.6008C791.199 89.4008 791.599 87.4008 792.399 85.4008C793.199 83.5008 794.399 81.8008 795.799 80.4008C797.199 79.0008 798.899 77.8008 800.799 77.0008C802.699 76.2008 804.799 75.8008 806.899 75.8008ZM806.899 105.201C810.699 105.201 813.899 103.901 816.499 101.201C817.699 100.001 818.699 98.5008 819.399 96.9008C820.099 95.3008 820.499 93.5008 820.499 91.6008C820.499 89.7008 820.099 88.0008 819.399 86.3008C818.699 84.7008 817.699 83.2008 816.499 82.0008C813.899 79.4008 810.699 78.0008 806.899 78.0008C803.099 78.0008 799.899 79.3008 797.299 82.0008C794.699 84.7008 793.299 87.9008 793.299 91.6008C793.299 93.4008 793.699 95.2008 794.399 96.8008C795.099 98.4008 796.099 99.9008 797.299 101.101C799.999 103.801 803.199 105.201 806.899 105.201ZM814.699 88.0008C814.699 89.0008 814.399 90.0008 813.799 90.8008C813.199 91.6008 812.299 92.2008 811.299 92.5008C812.999 93.0008 813.999 94.4008 814.399 96.7008C814.499 97.3008 814.499 97.8008 814.499 98.3008V100.501H811.299V98.7008C811.299 97.4008 811.199 96.4008 810.899 95.8008C810.299 94.6008 809.299 94.0008 807.799 94.0008H803.299V100.501H800.099V82.9008H807.599C810.099 82.9008 811.899 83.4008 813.099 84.3008C814.199 85.2008 814.699 86.5008 814.699 88.0008ZM807.299 91.2008C808.599 91.2008 809.599 91.0008 810.399 90.5008C811.199 90.0008 811.599 89.3008 811.599 88.4008C811.599 87.5008 811.299 86.8008 810.699 86.3008C810.099 85.8008 808.899 85.5008 807.299 85.5008H803.399V91.2008H807.299Z" fill="white"/>
</svg>
